<?xml version="1.0" encoding="utf-8"?>
<!-- Generator: Adobe Illustrator 15.1.0, SVG Export Plug-In  -->
<!DOCTYPE svg PUBLIC "-//W3C//DTD SVG 1.1//EN" "http://www.w3.org/Graphics/SVG/1.1/DTD/svg11.dtd" [
	<!ENTITY ns_flows "http://ns.adobe.com/Flows/1.0/">
]>
<svg version="1.1"
	 xmlns="http://www.w3.org/2000/svg" xmlns:xlink="http://www.w3.org/1999/xlink" xmlns:a="http://ns.adobe.com/AdobeSVGViewerExtensions/3.0/"
	 x="0px" y="0px" width="40px" height="40px" viewBox="0 0 40 40" overflow="visible" enable-background="new 0 0 40 40"
	 xml:space="preserve">
<defs>
</defs>
<g>
	<path fill="#26C4F1" d="M0,5c0-2.75,2.25-5,5-5h29.999c2.75,0,5,2.25,5,5v30c0,2.75-2.25,5-5,5H5c-2.75,0-5-2.25-5-5V5z"/>
</g>
<path fill="#FFFFFF" d="M30.152,14.794c0.008,0.225,0.015,0.449,0.015,0.681c0,6.917-5.271,14.896-14.899,14.896
	c-2.959,0-5.714-0.865-8.03-2.352c0.414,0.045,0.828,0.073,1.253,0.073c2.451,0,4.71-0.836,6.501-2.245
	c-2.288-0.039-4.229-1.558-4.889-3.636c0.318,0.062,0.642,0.095,0.981,0.095c0.48,0,0.946-0.062,1.382-0.185
	c-2.394-0.479-4.2-2.597-4.2-5.133c0-0.021,0-0.045,0-0.069c0.705,0.394,1.512,0.632,2.372,0.656
	c-1.408-0.936-2.33-2.541-2.33-4.354c0-0.963,0.262-1.865,0.708-2.634c2.58,3.166,6.446,5.251,10.792,5.469
	c-0.091-0.38-0.134-0.785-0.134-1.192c-0.002-2.895,2.342-5.236,5.24-5.236c1.501,0,2.861,0.636,3.818,1.654
	c1.19-0.235,2.31-0.669,3.324-1.271c-0.394,1.222-1.223,2.248-2.3,2.896c1.058-0.128,2.063-0.408,3.005-0.825
	C32.062,13.133,31.175,14.056,30.152,14.794z"/>
</svg>
