<?xml version="1.0" encoding="utf-8"?>
<!-- Generator: Adobe Illustrator 15.1.0, SVG Export Plug-In . SVG Version: 6.00 Build 0)  -->
<!DOCTYPE svg PUBLIC "-//W3C//DTD SVG 1.1//EN" "http://www.w3.org/Graphics/SVG/1.1/DTD/svg11.dtd">
<svg version="1.1" id="Layer_1" xmlns="http://www.w3.org/2000/svg" xmlns:xlink="http://www.w3.org/1999/xlink" x="0px" y="0px"
	 width="40px" height="40px" viewBox="0 0 40 40" enable-background="new 0 0 40 40" xml:space="preserve">
<g>
	<path fill="#4E7BA0" d="M0,5c0-2.75,2.25-5,5-5h30c2.75,0,5,2.25,5,5v30.004c0,2.75-2.25,5-5,5H5c-2.75,0-5-2.25-5-5V5z"/>
</g>
<path fill="#FFFFFF" d="M11.461,8.51h17.081c1.623,0,2.948,1.328,2.948,2.95v17.083c0,1.623-1.325,2.95-2.948,2.95H11.461
	c-1.623-0.001-2.952-1.327-2.952-2.95V11.46C8.51,9.838,9.839,8.51,11.461,8.51L11.461,8.51z M25.252,11.064
	c-0.57,0-1.036,0.466-1.036,1.034v2.477c0,0.569,0.466,1.035,1.036,1.035h2.598c0.569,0,1.035-0.467,1.035-1.035v-2.477
	c0-0.569-0.466-1.034-1.035-1.034H25.252L25.252,11.064z M28.895,18.229H26.87c0.192,0.625,0.298,1.287,0.298,1.973
	c0,3.821-3.2,6.92-7.145,6.92s-7.146-3.099-7.146-6.92c0-0.687,0.105-1.348,0.298-1.973h-2.113v9.708
	c0,0.502,0.413,0.914,0.917,0.914h16c0.504,0,0.916-0.412,0.916-0.914V18.229L28.895,18.229z M20.023,15.479
	c-2.549,0-4.617,2.002-4.617,4.472c0,2.471,2.068,4.47,4.617,4.47c2.549,0,4.618-1.999,4.618-4.47
	C24.641,17.482,22.572,15.479,20.023,15.479z"/>
</svg>
