<?xml version="1.0" encoding="utf-8"?>
<!-- Generator: Adobe Illustrator 15.1.0, SVG Export Plug-In . SVG Version: 6.00 Build 0)  -->
<!DOCTYPE svg PUBLIC "-//W3C//DTD SVG 1.1//EN" "http://www.w3.org/Graphics/SVG/1.1/DTD/svg11.dtd">
<svg version="1.1" id="Layer_1" xmlns="http://www.w3.org/2000/svg" xmlns:xlink="http://www.w3.org/1999/xlink" x="0px" y="0px"
	 width="40px" height="40px" viewBox="0 0 40 40" enable-background="new 0 0 40 40" xml:space="preserve">
<g>
	<path fill="#306199" d="M0,5c0-2.75,2.25-5,5-5h30c2.75,0,5,2.25,5,5v29.932c0,2.75-2.25,5-5,5H5c-2.75,0-5-2.25-5-5V5z"/>
</g>
<path fill="#FFFFFF" d="M30.421,25.01h-4.2c0,6.721,0,14.99,0,14.99h-6.229c0,0,0-8.188,0-14.99h-2.959v-5.295h2.959v-3.424
	c0-2.456,1.163-6.291,6.284-6.291l4.619,0.02v5.142c0,0-2.805,0-3.349,0c-0.548,0-1.327,0.272-1.327,1.44v3.113h4.748L30.421,25.01z
	"/>
</svg>
