<?xml version="1.0" encoding="utf-8"?>
<!-- Generator: Adobe Illustrator 15.1.0, SVG Export Plug-In  -->
<!DOCTYPE svg PUBLIC "-//W3C//DTD SVG 1.1//EN" "http://www.w3.org/Graphics/SVG/1.1/DTD/svg11.dtd" [
	<!ENTITY ns_flows "http://ns.adobe.com/Flows/1.0/">
]>
<svg version="1.1"
	 xmlns="http://www.w3.org/2000/svg" xmlns:xlink="http://www.w3.org/1999/xlink" xmlns:a="http://ns.adobe.com/AdobeSVGViewerExtensions/3.0/"
	 x="0px" y="0px" width="16px" height="20px" viewBox="0 0 16 20" overflow="visible" enable-background="new 0 0 16 20"
	 xml:space="preserve">
<defs>
</defs>
<path fill="#FFFFFF" d="M13.506,7.653V5.699c0-3.143-2.556-5.699-5.7-5.699C4.665,0,2.109,2.556,2.109,5.699v1.954H0V20h15.614
	V7.653H13.506z M4.432,5.699c0-1.861,1.513-3.375,3.374-3.375c1.862,0,3.377,1.515,3.377,3.375v1.954H4.432V5.699z M9.266,17.459
	H6.348l0.572-3.133c-0.749-0.339-1.276-1.089-1.276-1.965c0-1.195,0.966-2.166,2.162-2.166c1.196,0,2.164,0.971,2.164,2.166
	c0,0.86-0.514,1.594-1.242,1.939L9.266,17.459z"/>
</svg>
